<?xml version="1.0" encoding="UTF-8"?>
<svg id="Layer_1" data-name="Layer 1" xmlns="http://www.w3.org/2000/svg" viewBox="0 0 100 100">
  <defs>
    <style>
      .cls-1 {
        fill: #000000;
        stroke-width: 0px;
      }
    </style>
  </defs>
  <path class="cls-1" d="M33.05,90.62c-5,0-9.41-1.27-13.24-3.81s-6.82-6.13-8.98-10.78c-2.16-4.65-3.24-10.15-3.24-16.5s1.08-11.77,3.24-16.41c2.16-4.63,5.17-8.22,9.02-10.74,3.85-2.53,8.31-3.79,13.36-3.79,3.91,0,7,.64,9.28,1.93,2.28,1.29,4.02,2.75,5.23,4.38,1.21,1.63,2.15,2.96,2.83,4h.78V9.38h9.22v80h-8.91v-9.22h-1.09c-.68,1.09-1.64,2.47-2.89,4.12-1.25,1.65-3.03,3.12-5.35,4.41-2.32,1.29-5.4,1.93-9.26,1.93ZM34.3,82.34c3.7,0,6.82-.97,9.38-2.91,2.55-1.94,4.49-4.63,5.82-8.09,1.33-3.45,1.99-7.44,1.99-11.97s-.65-8.4-1.95-11.78c-1.3-3.37-3.23-6-5.78-7.89-2.55-1.89-5.7-2.83-9.45-2.83s-7.16,1-9.75,2.99c-2.59,1.99-4.53,4.69-5.82,8.09s-1.93,7.21-1.93,11.43.66,8.14,1.97,11.62c1.31,3.48,3.27,6.24,5.86,8.28,2.59,2.04,5.81,3.07,9.67,3.07ZM85.39,90c-1.93,0-3.58-.69-4.96-2.07-1.38-1.38-2.07-3.03-2.07-4.96s.69-3.58,2.07-4.96,3.03-2.07,4.96-2.07,3.58.69,4.96,2.07c1.38,1.38,2.07,3.03,2.07,4.96,0,1.28-.32,2.45-.96,3.52-.64,1.07-1.48,1.92-2.54,2.56s-2.23.96-3.54.96Z"/>
</svg>